# xmcd
#
# Track frame offsets:
#	150
#	12903
#	24825
#	36054
#	46162
#	54223
#	63602
#	73935
#	85072
#	96113
#	106084
#	115931
#	127360
#	140046
#	150757
#	160360
#	170539
#	180124
#	194323
#	204051
#	219365
#	229146
#	242890
#	252690
#	263527
#	275230
#
# Disc length: 3818 seconds
#
# Revision: 1
# Processed by: cddbd v1.5.1PL0 Copyright (c) Steve Scherf et al.
# Submitted via: audiograbber 1.83.01
#
DISCID=650ee81a
DTITLE=Jim Reeves - Gentleman Jim CD2
DYEAR=1900
DGENRE=
TTITLE0=I Love You Because
TTITLE1=Welcome to my world
TTITLE2=How Can I Write On Paper What
TTITLE3=But You Love Me Daddy
TTITLE4=Trying To Forget
TTITLE5=I Won't Forget You
TTITLE6=Is It Really Over
TTITLE7=Angels Dont Lie
TTITLE8=I Guess I'm Crazy
TTITLE9=Snowflake
TTITLE10=Jim Reeves - Is This Me
TTITLE11=Anna Marie
TTITLE12=Blue Side Of Lonesome
TTITLE13=You're The Only Good Thing
TTITLE14=There's A Heartache Following
TTITLE15=I wont Come In While Hes there
TTITLE16=Im Gonna Change Everything
TTITLE17=This is it
TTITLE18=When Two Worlds Collide
TTITLE19=The Blizzard
TTITLE20=Im Getting Better
TTITLE21=I Love You Because(Live)
TTITLE22=Bimbo(Live)
TTITLE23=Four Walls-Blue Canadian Rocki
TTITLE24=Yonder Comes A sucker(live)
TTITLE25=Adios Amigo(live)
EXTD=
EXTT0=
EXTT1=
EXTT2=
EXTT3=
EXTT4=
EXTT5=
EXTT6=
EXTT7=
EXTT8=
EXTT9=
EXTT10=
EXTT11=
EXTT12=
EXTT13=
EXTT14=
EXTT15=
EXTT16=
EXTT17=
EXTT18=
EXTT19=
EXTT20=
EXTT21=
EXTT22=
EXTT23=
EXTT24=
EXTT25=
PLAYORDER=
